<svg width="46" height="36" viewBox="0 0 46 36" fill="none" xmlns="http://www.w3.org/2000/svg">
<path fill-rule="evenodd" clip-rule="evenodd" d="M35.6301 24.4395C36.3587 25.4635 37.5242 26.0977 38.884 26.1465C35.921 32 29.8494 35.9998 22.9035 36C19.3576 36 16.0541 34.9758 13.2854 33.1709L15.5197 30.9268C15.6654 30.7317 15.7628 30.5857 15.9084 30.4395C17.9485 31.6101 20.3289 32.293 22.8547 32.293C28.3921 32.2929 33.1528 29.1223 35.6301 24.4395ZM7.11641 12.293C8.0879 12.293 8.86543 13.0732 8.86543 14.0488V29.0244L11.2453 26.6338C11.9254 25.9511 13.0429 25.951 13.7229 26.6338C14.0628 26.9752 14.257 27.4146 14.257 27.9023C14.257 28.3901 14.0628 28.8294 13.7229 29.1709L8.37911 34.5859C8.03914 34.9272 7.60197 35.1221 7.11641 35.1221C6.63084 35.1221 6.19368 34.9272 5.85371 34.5859L0.509965 29.1709C-0.169944 28.488 -0.170033 27.3655 0.509965 26.6826C1.18992 25.9998 2.30744 25.9999 2.9875 26.6826L5.36739 29.0732V14.0488C5.36739 13.0732 6.14494 12.293 7.11641 12.293ZM28.6897 10.9336L25.7014 10.916C25.8147 11.0705 25.9191 11.232 26.0139 11.4004C26.3297 11.9624 26.5442 12.5786 26.6604 13.249H29.3537L28.6897 15.6016H26.676C26.5795 16.2022 26.4026 16.7643 26.1457 17.2881C25.7344 18.1264 25.0805 18.8098 24.1818 19.3369C23.2841 19.8641 22.1032 20.1726 20.6418 20.2617L20.5578 20.2803L26.7629 27.9121V28.0732H23.3L16.5051 19.7939L16.4865 17.9355H19.8547C20.6959 17.9355 21.4081 17.8057 21.9895 17.5459C22.5719 17.285 23.0148 16.9077 23.3186 16.4121C23.4665 16.1677 23.5778 15.8972 23.6535 15.6016H16.2482L16.9133 13.249H23.5715C23.4144 12.7818 23.166 12.3776 22.8244 12.0381C22.1918 11.4095 21.202 11.0957 19.8547 11.0957H16.2482L16.9416 8.56152H19.4182V8.56055H29.3635L28.6897 10.9336ZM38.884 0.87793C39.3697 0.87793 39.8067 1.07357 40.1467 1.41504L45.4904 6.8291C46.1705 7.51203 46.1705 8.63446 45.4904 9.31738C44.8104 10.0002 43.6929 10.0002 43.0129 9.31738L40.633 6.92676V22C40.633 22.9756 39.8555 23.7559 38.884 23.7559C37.9125 23.7558 37.135 22.9756 37.135 22V6.97559L34.7551 9.36621C34.075 10.0489 32.9575 10.0491 32.2775 9.36621C31.9376 9.02477 31.7434 8.53664 31.7434 8.09766C31.7434 7.60991 31.9376 7.17055 32.2775 6.8291L37.6213 1.41504C37.9613 1.0736 38.3983 0.877958 38.884 0.87793ZM22.8059 0C26.4004 1.58458e-07 29.801 1.12192 32.6184 2.97559L30.5295 5.07324C30.3352 5.26835 30.1889 5.46309 30.0432 5.6582C27.9546 4.43886 25.4775 3.70706 22.8547 3.70703C17.4144 3.70703 12.6538 6.78079 10.2736 11.3174C9.49645 10.4393 8.33052 9.85352 7.06758 9.85352C6.97079 9.85352 6.87405 9.85352 6.82539 9.85352C9.78847 4.00003 15.8599 4.09202e-05 22.8059 0Z" fill="white"/>
</svg>
